<svg width="149" height="37" viewBox="0 0 149 37" fill="none" xmlns="http://www.w3.org/2000/svg">
<path d="M8.7729 29L-0.000626193 2.52817L5.10466 2.52817L12.9328 26.4663L10.399 26.4663L18.5297 2.52817L23.0677 2.52817L30.9714 26.4663L28.5133 26.4663L36.5305 2.52817L41.2198 2.52817L32.4463 29L27.2275 29L20.0045 7.40655L21.3659 7.40655L14.0294 29L8.7729 29ZM52.7489 29.2647C50.5051 29.2647 48.5387 28.8235 46.8495 27.9411C45.1856 27.0335 43.8872 25.7982 42.9544 24.2351C42.0467 22.672 41.5929 20.8946 41.5929 18.9029C41.5929 16.886 42.0341 15.1086 42.9165 13.5707C43.8241 12.0076 45.0595 10.7849 46.6226 9.90247C48.2109 9.02007 50.0135 8.57887 52.0304 8.57887C53.9969 8.57887 55.7491 9.00746 57.287 9.86465C58.8248 10.7218 60.035 11.932 60.9174 13.4951C61.7998 15.0582 62.241 16.8986 62.241 19.0163C62.241 19.218 62.2284 19.4449 62.2032 19.697C62.2032 19.9492 62.1906 20.1887 62.1653 20.4156L45.3368 20.4156L45.3368 17.2768L59.6694 17.2768L57.8164 18.26C57.8416 17.1003 57.6021 16.0792 57.0979 15.1968C56.5937 14.3144 55.9003 13.6211 55.0179 13.1169C54.1608 12.6127 53.1649 12.3606 52.0304 12.3606C50.8707 12.3606 49.8496 12.6127 48.9672 13.1169C48.1101 13.6211 47.4294 14.327 46.9251 15.2346C46.4461 16.117 46.2066 17.1633 46.2066 18.3735L46.2066 19.1298C46.2066 20.3399 46.4839 21.4114 47.0386 22.3442C47.5932 23.277 48.3748 23.9956 49.3832 24.4998C50.3917 25.004 51.5514 25.2561 52.8624 25.2561C53.9969 25.2561 55.0179 25.0796 55.9256 24.7267C56.8332 24.3737 57.6399 23.8191 58.3458 23.0627L60.8796 25.9746C59.972 27.0335 58.8248 27.8529 57.4382 28.4327C56.0768 28.9874 54.5137 29.2647 52.7489 29.2647ZM78.2402 8.57887C79.8537 8.57887 81.2908 8.89401 82.5513 9.52429C83.8371 10.1546 84.8455 11.1252 85.5767 12.4362C86.3078 13.722 86.6734 15.3859 86.6734 17.428L86.6734 29L81.9462 29L81.9462 18.0331C81.9462 16.2431 81.5177 14.9069 80.6605 14.0245C79.8285 13.1421 78.6562 12.7009 77.1435 12.7009C76.0342 12.7009 75.051 12.9278 74.1938 13.3816C73.3366 13.8354 72.6685 14.5161 72.1895 15.4237C71.7357 16.3061 71.5088 17.428 71.5088 18.7894L71.5088 29L66.7817 29L66.7817 0.939858L71.5088 0.939858L71.5088 14.2514L70.4877 12.5875C71.1936 11.3017 72.2147 10.3185 73.5509 9.63775C74.9123 8.93183 76.4754 8.57887 78.2402 8.57887ZM102.199 29.2647C99.9552 29.2647 97.9887 28.8235 96.2995 27.9411C94.6356 27.0335 93.3372 25.7982 92.4044 24.2351C91.4968 22.672 91.043 20.8946 91.043 18.9029C91.043 16.886 91.4842 15.1086 92.3666 13.5707C93.2742 12.0076 94.5095 10.7849 96.0726 9.90247C97.6609 9.02007 99.4635 8.57887 101.48 8.57887C103.447 8.57887 105.199 9.00746 106.737 9.86465C108.275 10.7218 109.485 11.932 110.367 13.4951C111.25 15.0582 111.691 16.8986 111.691 19.0163C111.691 19.218 111.678 19.4449 111.653 19.697C111.653 19.9492 111.641 20.1887 111.615 20.4156L94.7869 20.4156L94.7869 17.2768L109.119 17.2768L107.266 18.26C107.292 17.1003 107.052 16.0792 106.548 15.1968C106.044 14.3144 105.35 13.6211 104.468 13.1169C103.611 12.6127 102.615 12.3606 101.48 12.3606C100.321 12.3606 99.2997 12.6127 98.4173 13.1169C97.5601 13.6211 96.8794 14.327 96.3752 15.2346C95.8961 16.117 95.6566 17.1633 95.6566 18.3735L95.6566 19.1298C95.6566 20.3399 95.934 21.4114 96.4886 22.3442C97.0433 23.277 97.8248 23.9956 98.8333 24.4998C99.8417 25.004 101.001 25.2561 102.312 25.2561C103.447 25.2561 104.468 25.0796 105.376 24.7267C106.283 24.3737 107.09 23.8191 107.796 23.0627L110.33 25.9746C109.422 27.0335 108.275 27.8529 106.888 28.4327C105.527 28.9874 103.964 29.2647 102.199 29.2647ZM116.232 29L116.232 0.939858L120.959 0.939858L120.959 29L116.232 29ZM138.357 29.2647C136.718 29.2647 135.218 28.8866 133.857 28.1302C132.521 27.3739 131.449 26.2394 130.642 24.7267C129.861 23.1888 129.47 21.2475 129.47 18.9029C129.47 16.533 129.848 14.5918 130.604 13.0791C131.386 11.5664 132.445 10.4445 133.781 9.71338C135.117 8.95704 136.643 8.57887 138.357 8.57887C140.349 8.57887 142.101 9.00747 143.614 9.86465C145.151 10.7218 146.362 11.9194 147.244 13.4573C148.152 14.9951 148.605 16.8104 148.605 18.9029C148.605 20.9954 148.152 22.8232 147.244 24.3863C146.362 25.9242 145.151 27.1218 143.614 27.9789C142.101 28.8361 140.349 29.2647 138.357 29.2647ZM127.163 36.3365L127.163 8.80577L131.663 8.80577L131.663 13.5707L131.512 18.9407L131.89 24.3107L131.89 36.3365L127.163 36.3365ZM137.828 25.2183C138.962 25.2183 139.97 24.9662 140.853 24.462C141.76 23.9577 142.479 23.2266 143.008 22.2686C143.538 21.3106 143.803 20.1887 143.803 18.9029C143.803 17.5919 143.538 16.47 143.008 15.5372C142.479 14.5792 141.76 13.848 140.853 13.3438C139.97 12.8396 138.962 12.5875 137.828 12.5875C136.693 12.5875 135.672 12.8396 134.764 13.3438C133.857 13.848 133.138 14.5792 132.609 15.5372C132.079 16.47 131.815 17.5919 131.815 18.9029C131.815 20.1887 132.079 21.3106 132.609 22.2686C133.138 23.2266 133.857 23.9577 134.764 24.462C135.672 24.9662 136.693 25.2183 137.828 25.2183Z" fill="url(#paint0_radial_1_22)"/>
<defs>
<radialGradient id="paint0_radial_1_22" cx="0" cy="0" r="1" gradientUnits="userSpaceOnUse" gradientTransform="translate(-154.693 80.4558) rotate(-17.7243) scale(554.954 322.851)">
<stop stop-color="#695DE8"/>
<stop offset="0.171875" stop-color="#BEBBFF"/>
<stop offset="0.411458" stop-color="#049289"/>
<stop offset="0.481326" stop-color="#DC9F9F"/>
<stop offset="0.551242" stop-color="#FFD3D3"/>
<stop offset="0.641429" stop-color="#EABFDA"/>
<stop offset="0.81967" stop-color="#7A50FF"/>
</radialGradient>
</defs>
</svg>
