<svg width="22" height="22" viewBox="0 0 22 22" fill="none" xmlns="http://www.w3.org/2000/svg">
<path d="M20.3125 8.65625H13.2812V1.625C13.2812 0.762207 12.5815 0.0625 11.7188 0.0625H10.1562C9.29346 0.0625 8.59375 0.762207 8.59375 1.625V8.65625H1.5625C0.699707 8.65625 0 9.35596 0 10.2188V11.7812C0 12.644 0.699707 13.3438 1.5625 13.3438H8.59375V20.375C8.59375 21.2378 9.29346 21.9375 10.1562 21.9375H11.7188C12.5815 21.9375 13.2812 21.2378 13.2812 20.375V13.3438H20.3125C21.1753 13.3438 21.875 12.644 21.875 11.7812V10.2188C21.875 9.35596 21.1753 8.65625 20.3125 8.65625Z" fill="#03FFE0"/>
</svg>
